<svg version="1.1" id="Layer_1" xmlns="http://www.w3.org/2000/svg" xmlns:xlink="http://www.w3.org/1999/xlink" x="0px" y="0px"
	 width="100%" viewBox="0 0 496 496" enable-background="new 0 0 496 496" xml:space="preserve">
<path fill="#000000" opacity="1.000000" stroke="none" 
	d="
M170.873901,369.163177 
	C128.053116,378.024261 92.353577,365.645020 63.668888,333.855652 
	C42.395645,310.279877 31.986246,281.924194 30.500780,250.155151 
	C28.496943,207.299927 42.532871,170.924011 74.466034,142.160095 
	C95.912796,122.841858 121.651779,113.215004 150.539932,114.904518 
	C185.202621,116.931763 214.232468,131.106552 234.848434,159.755051 
	C244.495743,173.161179 247.885468,188.120178 240.386581,204.045837 
	C233.150742,219.412766 216.075272,228.467697 198.679230,226.174500 
	C182.423691,224.031631 168.537140,210.134186 165.579514,193.683838 
	C163.288071,180.938934 166.751907,170.071960 174.744492,160.227264 
	C179.019211,154.961960 183.874359,150.089066 185.803864,143.195419 
	C187.712143,136.377670 185.612610,131.029724 180.434189,126.759804 
	C173.003540,120.632774 163.801590,119.712105 154.738113,118.274757 
	C140.651474,116.040810 131.164948,122.522827 123.733986,133.668839 
	C113.167656,149.517731 107.627632,167.253235 104.581657,185.752502 
	C99.828629,214.619293 101.531013,243.198792 111.465508,270.852661 
	C120.114906,294.929260 133.443130,315.811249 156.387955,328.861694 
	C178.413925,341.389496 200.320969,339.895660 221.685745,326.963440 
	C228.108902,323.075500 234.054230,318.494171 238.986237,312.723328 
	C240.160110,311.349823 241.467407,309.893402 244.512451,311.636017 
	C227.564560,340.605988 203.954086,360.503906 170.873901,369.163177 
z"/>
<path fill="#000000" opacity="1.000000" stroke="none" 
	d="
M247.020264,126.030228 
	C242.532516,120.472435 236.502029,118.350716 229.755890,117.404930 
	C231.055496,114.081497 233.137772,114.719933 234.754822,114.716667 
	C259.245941,114.667381 283.737305,114.643608 308.228394,114.708992 
	C315.142029,114.727448 317.323944,117.385284 317.325256,125.381302 
	C317.337189,198.355240 317.362000,271.329193 317.289673,344.303070 
	C317.282928,351.109650 319.226746,356.776001 324.913422,360.741486 
	C330.095581,364.355133 335.683594,364.902191 341.487549,362.276733 
	C358.767059,354.460297 373.485077,343.209900 385.838409,328.875549 
	C413.552246,296.717529 429.359436,259.084534 436.413727,217.567474 
	C437.312500,212.277954 438.339691,206.830246 436.832916,201.233978 
	C434.775574,193.592819 429.688141,189.600372 421.777618,190.703369 
	C416.847595,191.390762 411.991943,192.595261 407.085175,193.468048 
	C382.265991,197.882706 359.491516,177.273392 361.425629,152.176804 
	C362.977478,132.040421 377.577850,116.779518 397.201904,114.782005 
	C416.219421,112.846222 433.571869,125.001854 439.418274,144.371216 
	C444.019653,159.615829 443.944946,175.297119 443.035767,190.910019 
	C441.508606,217.134781 436.265900,242.674850 426.574615,267.157745 
	C412.909332,301.680023 393.639832,332.201630 362.885590,354.225586 
	C347.365997,365.339600 330.168304,372.065155 310.882751,372.174225 
	C283.565918,372.328705 263.140228,356.681458 255.709976,330.300995 
	C252.851379,320.151825 251.678772,309.776611 251.681152,299.245453 
	C251.692993,246.597595 251.661942,193.949722 251.718597,141.301926 
	C251.724533,135.789520 250.639969,130.741119 247.020264,126.030228 
z"/>
<path fill="#000000" opacity="1.000000" stroke="none" 
	d="
M449.140137,326.823273 
	C461.773407,327.701599 470.056976,333.977509 472.815125,344.420380 
	C475.474609,354.489655 471.782867,364.262238 463.103210,370.129517 
	C455.515778,375.258392 444.862457,375.402893 437.277710,370.203552 
	C429.293976,364.730743 425.737427,356.920013 427.073273,347.410889 
	C428.565552,336.788025 435.192444,329.795868 444.810638,327.629700 
	C446.104004,327.338379 447.409210,327.099579 449.140137,326.823273 
z"/>
</svg>